<svg width="307" height="311" viewBox="0 0 307 311" fill="none" xmlns="http://www.w3.org/2000/svg">
    <rect x="6" y="5" width="293" height="293" rx="100" fill="#2B2B2B"/>
    <path d="M72.771 -53C86.9953 77.2724 79.3361 348.309 -65.0945 390.276C-245.633 442.735 397.74 37.4912 424 201.425" stroke="white" stroke-width="36"/>
    <path d="M106.996 211.275C105.358 212.003 103.821 212.01 102.382 211.296C100.943 210.582 99.8599 209.406 99.1314 207.769C97.8825 204.962 97.5346 201.661 98.0875 197.866C98.23 196.822 98.4592 195.763 98.775 194.688C99.0734 193.575 99.4477 192.474 99.8978 191.387C100.564 189.736 101.376 188.254 102.333 186.941C103.29 185.628 104.372 184.703 105.581 184.165C107.569 183.28 108.979 183.774 109.812 185.645C110.852 187.984 110.433 190.715 108.554 193.839C106.784 196.682 104.671 198.65 102.215 199.742C101.786 199.933 101.387 200.087 101.019 200.204C100.673 200.265 100.346 200.317 100.038 200.361C99.9778 201.275 100.052 202.386 100.26 203.694C100.469 205.002 100.764 206.085 101.145 206.943C102.29 209.516 103.993 210.299 106.254 209.293C108.086 208.478 109.682 207.394 111.042 206.042C112.384 204.651 113.787 202.556 115.25 199.756C116.168 198.041 116.83 196.695 117.237 195.72C117.644 194.745 118.092 193.705 118.581 192.601C118.745 192.341 118.925 192.167 119.12 192.08C119.315 191.994 119.536 191.966 119.783 191.996C120.03 192.026 120.205 192.158 120.309 192.392C120.5 192.821 120.379 193.598 119.946 194.725C119.561 195.643 119.154 196.618 118.726 197.65C118.28 198.642 117.527 200.098 116.466 202.017C115.341 204.106 113.929 205.972 112.232 207.614C110.534 209.257 108.789 210.477 106.996 211.275ZM101.031 198.027C102.279 197.472 103.381 196.748 104.338 195.856C105.295 194.963 106.115 193.921 106.799 192.729C108.315 190.047 108.743 187.965 108.084 186.484C107.789 185.821 107.232 185.672 106.413 186.036C104.854 186.73 103.466 188.491 102.25 191.321C101.653 192.707 101.196 193.938 100.881 195.012C100.586 196.03 100.366 197.109 100.219 198.249C100.488 198.223 100.758 198.149 101.031 198.027ZM130.769 200.697C129.131 201.426 127.593 201.433 126.155 200.719C124.716 200.004 123.633 198.829 122.904 197.191C121.655 194.385 121.308 191.084 121.86 187.289C122.003 186.244 122.232 185.185 122.548 184.111C122.846 182.997 123.221 181.897 123.671 180.809C124.337 179.158 125.149 177.676 126.106 176.363C127.063 175.05 128.145 174.125 129.354 173.587C131.342 172.703 132.752 173.196 133.585 175.067C134.625 177.406 134.206 180.137 132.327 183.262C130.557 186.104 128.443 188.072 125.988 189.165C125.559 189.356 125.16 189.51 124.792 189.627C124.446 189.687 124.119 189.74 123.811 189.783C123.751 190.697 123.825 191.808 124.033 193.117C124.242 194.425 124.537 195.508 124.918 196.365C126.063 198.938 127.766 199.721 130.027 198.715C131.859 197.9 133.455 196.817 134.815 195.464C136.157 194.073 137.56 191.978 139.023 189.179C139.941 187.463 140.603 186.118 141.01 185.143C141.417 184.168 141.865 183.128 142.354 182.023C142.518 181.763 142.698 181.59 142.893 181.503C143.088 181.416 143.309 181.388 143.556 181.418C143.803 181.448 143.978 181.58 144.082 181.814C144.273 182.243 144.152 183.021 143.719 184.147C143.334 185.066 142.927 186.041 142.499 187.072C142.053 188.064 141.3 189.52 140.239 191.44C139.114 193.528 137.702 195.394 136.005 197.036C134.307 198.679 132.562 199.899 130.769 200.697ZM124.804 187.45C126.052 186.895 127.154 186.171 128.111 185.278C129.068 184.385 129.888 183.343 130.572 182.151C132.088 179.469 132.516 177.387 131.856 175.906C131.562 175.243 131.005 175.094 130.186 175.458C128.627 176.152 127.239 177.914 126.023 180.743C125.426 182.13 124.969 183.36 124.654 184.435C124.359 185.453 124.139 186.532 123.992 187.671C124.261 187.645 124.531 187.571 124.804 187.45ZM169.428 188.469C169.116 188.608 168.657 188.625 168.051 188.522C167.5 188.44 167.048 188.314 166.692 188.145C165.964 187.769 165.34 187.206 164.82 186.457C164.3 185.707 163.823 184.846 163.39 183.871C163.025 183.052 162.655 182.167 162.277 181.214C161.922 180.204 161.579 179.119 161.249 177.958C160.756 179.579 160.118 181.241 159.334 182.943C158.573 184.59 157.685 186.059 156.672 187.35C155.698 188.624 154.626 189.522 153.456 190.042C150.533 191.343 148.377 190.434 146.989 187.315C145.55 184.08 145.293 180.458 146.218 176.451C146.69 174.466 147.343 172.471 148.178 170.465C149.013 168.459 150.039 166.671 151.256 165.103C152.473 163.534 153.861 162.403 155.42 161.709C156.589 161.189 157.822 161.177 159.117 161.675C159.126 161.484 159.111 161.187 159.072 160.785C159.071 160.364 159.086 159.821 159.116 159.154C159.15 156.71 159.246 154.146 159.406 151.46C159.547 148.735 159.746 146.451 160.001 144.61C160.303 142.561 160.902 141.337 161.799 140.938C162.423 140.66 162.951 141.009 163.385 141.983C164.131 143.66 164.295 148.28 163.878 155.844C163.839 156.282 163.775 157.081 163.684 158.242C163.615 159.347 163.518 160.651 163.393 162.154C163.29 163.601 163.167 165.057 163.025 166.521C162.883 167.985 162.747 169.307 162.617 170.485C162.509 171.607 162.417 172.396 162.339 172.85C162.69 174.795 163.105 176.619 163.582 178.321C164.042 179.985 164.645 181.655 165.391 183.331C165.668 183.954 165.939 184.511 166.204 185C166.525 185.512 166.871 185.871 167.244 186.079C167.543 186.226 167.835 186.306 168.121 186.319C168.425 186.371 168.758 186.386 169.122 186.364C169.642 186.273 169.997 186.441 170.188 186.87C170.5 187.572 170.247 188.105 169.428 188.469ZM161.301 162.805C161.655 159.612 161.912 156.672 162.071 153.986C162.213 151.261 162.201 148.768 162.035 146.507C161.378 149.228 161.026 151.953 160.979 154.682C160.933 157.411 161.04 160.119 161.301 162.805ZM152.267 188.47C153.397 187.967 154.421 187.068 155.339 185.772C156.279 184.42 157.079 182.966 157.742 181.411C158.339 180.024 158.849 178.653 159.273 177.296C159.68 175.901 160.02 174.513 160.292 173.131C159.997 171.628 159.749 170.127 159.549 168.628C159.388 167.112 159.266 165.578 159.183 164.027C158.126 163.33 157.032 163.233 155.902 163.736C154.732 164.256 153.626 165.286 152.582 166.824C151.561 168.306 150.673 169.985 149.92 171.861C149.206 173.72 148.642 175.442 148.226 177.028C147.439 180.507 147.696 183.709 148.997 186.632C149.812 188.464 150.902 189.077 152.267 188.47ZM174.486 181.736C173.862 182.013 173.437 181.899 173.212 181.392C173.108 181.158 173.062 180.898 173.075 180.612C173.127 180.309 173.157 180.062 173.166 179.871L173.7 166.745C173.914 161.139 173.908 158.082 173.683 157.576C173.44 157.03 173.592 156.636 174.137 156.393C174.878 156.063 175.413 156.269 175.743 157.009C175.916 157.399 176.018 158.101 176.049 159.115C176.08 160.128 176.074 161.322 176.031 162.695C175.997 165.139 175.911 167.045 175.773 168.414C176.336 166.529 176.952 164.714 177.623 162.968C178.294 161.221 179.01 159.525 179.772 157.879C182.036 152.995 184.161 150.111 186.149 149.227C187.514 148.62 188.482 148.959 189.055 150.246C189.61 151.493 189.478 152.299 188.659 152.663C188.269 152.837 187.83 152.635 187.34 152.059C187.015 151.644 186.638 151.531 186.209 151.722C185.546 152.017 184.581 153.31 183.312 155.603C181.901 158.099 180.601 160.896 179.411 163.994C178.259 167.074 177.232 170.8 176.329 175.172L175.226 180.566C175.157 180.83 175.07 181.055 174.966 181.242C174.919 181.45 174.759 181.614 174.486 181.736Z" fill="white"/>
    </svg>
    